<?xml version="1.0" encoding="UTF-8"?>
<svg width="131px" height="46px" viewBox="0 0 131 46" version="1.1" xmlns="http://www.w3.org/2000/svg" xmlns:xlink="http://www.w3.org/1999/xlink">
    <!-- Generator: sketchtool 51.1 (57501) - http://www.bohemiancoding.com/sketch -->
    <title>3B66EE75-1AB1-423E-84B6-55A6B9AF50B7</title>
    <desc>Created with sketchtool.</desc>
    <defs></defs>
    <g id="Symbols" stroke="none" stroke-width="1" fill="none" fill-rule="evenodd">
        <g id="component/nav-desktop" transform="translate(-248.000000, -22.000000)">
            <g id="component/nav-desktop-home">
                <g id="asset/logo/mRelief-default" transform="translate(248.000000, 22.000000)">
                    <g id="asset/logo/mRelief">
                        <path d="M122.653796,0.0255555556 L9.88004202,0.0255555556 C5.35810691,0.024505523 1.6861435,3.66064589 1.66593838,8.15952381 L1.66593838,28.7353968 C1.66593838,28.7353968 1.69896359,36.7196825 1.66593838,37.9426984 C1.60172269,40.2536508 1.52282913,43.5101587 0.218333333,45.5710317 C0.15822417,45.6638953 0.160082734,45.7835976 0.223046233,45.8745697 C0.286009733,45.9655418 0.397746913,46.0099671 0.506386555,45.9872222 C2.93557423,45.452381 9.46172269,43.6671429 11.4542437,39.4285714 L122.662969,39.4285714 C127.173024,39.4245409 130.826715,35.785359 130.8257,31.298254 L130.8257,8.15587302 C130.826187,5.99943032 129.965377,3.93117085 128.432742,2.40633556 C126.900107,0.881500263 124.821269,0.0250712338 122.653796,0.0255555556 Z" id="Shape" fill="#3369FF" fill-rule="nonzero"></path>
                        <path d="M28.3539776,13.3564286 C27.149148,13.3472908 25.956461,13.5963185 24.8569748,14.0865873 C23.9190885,14.5052977 23.0839456,15.1219273 22.4094398,15.8937302 C21.8430012,15.1157508 21.0924487,14.488771 20.2242717,14.0683333 C19.2025557,13.5841632 18.0827037,13.3399738 16.9511064,13.3546032 C15.9135427,13.3440834 14.8841142,13.537631 13.9219608,13.924127 C13.2128333,14.2150029 12.5621329,14.630519 12.0009944,15.1507937 L12.0009944,13.7233333 C12.0009944,13.5217056 11.8367067,13.358254 11.6340476,13.358254 L7.3022409,13.358254 C7.09958179,13.358254 6.93529412,13.5217056 6.93529412,13.7233333 L6.93529412,30.1774603 C6.93529412,30.3790881 7.09958179,30.5425397 7.3022409,30.5425397 L11.8468768,30.5425397 C12.0495359,30.5425397 12.2138235,30.3790881 12.2138235,30.1774603 L12.2138235,22.0398413 C12.2138235,20.681746 12.5220588,19.6503968 13.1311905,18.9768254 C13.7403221,18.303254 14.5641176,17.9710317 15.5934034,17.9710317 C17.5382213,17.9710317 18.484944,19.1611905 18.484944,21.610873 L18.484944,30.1701587 C18.484944,30.3717865 18.6492316,30.5352381 18.8518908,30.5352381 L23.3965266,30.5352381 C23.5991857,30.5352381 23.7634734,30.3717865 23.7634734,30.1701587 L23.7634734,22.0398413 C23.7634734,20.681746 24.0735434,19.6503968 24.6808403,18.9768254 C25.2881373,18.303254 26.1247759,17.9710317 27.1742437,17.9710317 C28.0916106,17.9710317 28.8144958,18.266746 29.3080392,18.8472222 C29.8015826,19.4276984 30.0639496,20.3714286 30.0639496,21.610873 L30.0639496,30.1701587 C30.0639496,30.3717865 30.2282372,30.5352381 30.4308964,30.5352381 L34.9736975,30.5352381 C35.1763566,30.5352381 35.3406443,30.3717865 35.3406443,30.1701587 L35.3406443,20.8770635 C35.3406443,18.3963492 34.7003221,16.4961111 33.4398599,15.2475397 C32.1793978,13.9989683 30.4804342,13.3564286 28.3539776,13.3564286 Z" id="Shape" fill="#FFFFFF" fill-rule="nonzero"></path>
                        <path d="M52.4843978,23.1825397 C53.8496769,22.593547 55.0181107,21.6298726 55.8529692,20.4042857 C56.67493,19.1721429 57.0932493,17.6862698 57.0932493,15.9868254 C57.0932493,14.287381 56.6804342,12.7978571 55.8694818,11.5529365 C55.0140883,10.2730197 53.8028603,9.26837697 52.3834874,8.66150794 C50.8881793,7.9897619 49.1048179,7.6484127 47.0847759,7.6484127 L37.4854482,7.6484127 C37.2827891,7.6484127 37.1185014,7.8118643 37.1185014,8.01349206 L37.1185014,30.1683333 C37.1185014,30.3699611 37.2827891,30.5334127 37.4854482,30.5334127 L42.2704342,30.5334127 C42.4730933,30.5334127 42.637381,30.3699611 42.637381,30.1683333 L42.637381,24.2357937 L47.2737535,24.2357937 L51.5560224,30.378254 C51.6247889,30.4781684 51.7388764,30.537657 51.8605882,30.5370635 L56.929958,30.5370635 C57.0683895,30.5376837 57.1953898,30.4607419 57.2583754,30.3380952 C57.3227856,30.2162768 57.3128542,30.0687706 57.2326891,29.9565873 L52.4843978,23.1825397 Z M50.3157423,18.8015873 C49.5213025,19.4660317 48.3360644,19.8037302 46.794888,19.8037302 L42.6410504,19.8037302 L42.6410504,12.1826984 L46.794888,12.1826984 C48.3360644,12.1826984 49.5213025,12.5149206 50.3157423,13.1702381 C51.1101821,13.8255556 51.5028151,14.7692857 51.5028151,15.994127 C51.5028151,17.2189683 51.1028431,18.1407937 50.3157423,18.8015873 Z" id="Shape" fill="#FFFFFF" fill-rule="nonzero"></path>
                        <path d="M71.4793978,14.4060317 C68.627241,12.9778534 65.2600276,12.9954996 62.4231513,14.4534921 C61.0821878,15.1670682 59.9653641,16.2352536 59.1958543,17.5402381 C58.4067994,18.8866833 58.0002968,20.4211343 58.0197899,21.9796032 C57.996789,23.5461893 58.4088319,25.088698 59.2105322,26.4372222 C60.0225722,27.7600197 61.1968231,28.8250813 62.5956162,29.5075397 C64.0468908,30.2376984 65.7385154,30.6119048 67.6227871,30.6119048 C70.5583613,30.6119048 72.8536134,29.7521429 74.4296499,28.0563492 C74.5536925,27.9222162 74.5536925,27.715879 74.4296499,27.581746 L72.1619188,25.1357143 C72.0955857,25.0646766 72.0025147,25.0243306 71.905056,25.0243651 C71.8171273,25.0253723 71.7324857,25.0577611 71.6665406,25.1156349 C71.1800899,25.5593914 70.6160912,25.9107927 70.002437,26.1524603 C69.2800314,26.4129525 68.5158252,26.5397751 67.747549,26.5266667 C66.5256162,26.5266667 65.4908263,26.2346032 64.672535,25.6596032 C63.91372,25.1350165 63.3735137,24.3528476 63.1533754,23.46 L75.3488515,23.46 C75.5330932,23.4595332 75.685852,23.3178961 75.6992857,23.1350794 C75.7690056,22.2369841 75.7763445,22.0836508 75.7763445,22.0398413 C75.7763445,20.3057143 75.3928852,18.754127 74.6333053,17.4471429 C73.8952814,16.1547345 72.8008854,15.0994785 71.4793978,14.4060317 Z M63.079986,20.4115873 C63.216786,19.5169337 63.6726759,18.701156 64.3642997,18.1134127 C65.1174904,17.5077964 66.0640478,17.1910763 67.0320028,17.2207937 C67.9923894,17.197259 68.9286732,17.5216041 69.6666807,18.1334921 C70.3507522,18.7212443 70.8053608,19.5295603 70.9509944,20.4170635 L63.079986,20.4115873 Z" id="Shape" fill="#FFFFFF" fill-rule="nonzero"></path>
                        <path d="M85.4178711,26.229127 C85.382525,26.2294999 85.347375,26.2344082 85.3132913,26.2437302 C84.9411457,26.3587317 84.5543838,26.4202003 84.1647479,26.4262698 C83.6913866,26.4262698 83.3758123,26.2984921 83.2015126,26.0338095 C83.0272129,25.769127 82.9189636,25.2525397 82.9189636,24.5552381 L82.9189636,5.62769841 C82.9189636,5.42607065 82.7546759,5.26261905 82.5520168,5.26261905 L77.9651821,5.26261905 C77.762523,5.26261905 77.5982353,5.42607065 77.5982353,5.62769841 L77.5982353,25.4880159 C77.6165826,27.2349206 77.9908683,28.529127 78.6990756,29.3359524 C79.4329692,30.1701587 80.6347199,30.5918254 82.2584594,30.5918254 C82.8445228,30.5893959 83.4278464,30.5120971 83.9941176,30.3618254 C84.4641169,30.2486115 84.915223,30.0684726 85.3334734,29.8269841 C85.4316084,29.7666165 85.4954907,29.6638431 85.5059384,29.5495238 L85.7866527,26.6288889 C85.7976142,26.5256136 85.7638495,26.4225812 85.6938099,26.3455813 C85.6237703,26.2685814 85.524085,26.224902 85.4197059,26.2254762 L85.4178711,26.229127 Z" id="Shape" fill="#FFFFFF" fill-rule="nonzero"></path>
                        <path d="M92.5329692,6.06761905 C91.9256723,5.53095238 91.1312325,5.25896825 90.1716667,5.25896825 C89.2121008,5.25896825 88.4158263,5.54373016 87.8085294,6.10230159 C87.2221534,6.64451671 86.8890179,7.40505122 86.8890179,8.20150794 C86.8890179,8.99796465 87.2221534,9.75849917 87.8085294,10.3007143 C88.4139916,10.8611111 89.2102661,11.1440476 90.1716667,11.1440476 C91.1330672,11.1440476 91.9293417,10.8556349 92.5366387,10.2842857 C93.141449,9.72159912 93.4753423,8.92831975 93.4540056,8.1047619 C93.4672034,7.32314178 93.1295583,6.57634024 92.5329692,6.06761905 Z" id="Shape" fill="#FFFFFF" fill-rule="nonzero"></path>
                        <rect id="Rectangle-path" fill="#FFFFFF" fill-rule="nonzero" x="87.5057983" y="12.889127" width="5.33173669" height="17.6461111" rx="0.368730159"></rect>
                        <path d="M112.346261,22.0416667 C112.346261,20.3075397 111.960966,18.7559524 111.203221,17.4489683 C110.465968,16.1561406 109.37221,15.1002519 108.051148,14.4060317 C105.198992,12.9778534 101.831778,12.9954996 98.994902,14.4534921 C97.6567515,15.1689565 96.5421711,16.2368175 95.7731092,17.5402381 C94.9846955,18.8868655 94.5788302,20.421305 94.5988796,21.9796032 C94.5750197,23.5462945 94.9871235,25.089031 95.7896218,26.4372222 C96.6011864,27.76041 97.775566,28.8255883 99.1747059,29.5075397 C100.62598,30.2376984 102.317605,30.6119048 104.201877,30.6119048 C107.137451,30.6119048 109.430868,29.7521429 111.008739,28.0563492 C111.131911,27.9218795 111.131911,27.7162157 111.008739,27.581746 L108.741008,25.1357143 C108.674675,25.0646766 108.581604,25.0243306 108.484146,25.0243651 C108.395584,25.0249344 108.310217,25.0573514 108.243796,25.1156349 C107.757717,25.5589743 107.1944,25.9103384 106.581527,26.1524603 C105.859079,26.4127931 105.094903,26.5396108 104.326639,26.5266667 C103.102871,26.5266667 102.068081,26.2346032 101.24979,25.6596032 C100.492028,25.1343373 99.9526069,24.3523603 99.732465,23.46 L111.918768,23.46 C112.10266,23.4586571 112.254914,23.3174878 112.269202,23.1350794 C112.338922,22.2333333 112.346261,22.0873016 112.346261,22.0416667 Z M99.649902,20.4115873 C99.7882711,19.5174678 100.243876,18.7022001 100.934216,18.1134127 C101.687724,17.5083728 102.634061,17.1917267 103.601919,17.2207937 C104.562853,17.1973146 105.499694,17.5216267 106.238431,18.1334921 C106.922503,18.7212443 107.377112,19.5295603 107.522745,20.4170635 L99.649902,20.4115873 Z" id="Shape" fill="#FFFFFF" fill-rule="nonzero"></path>
                        <path d="M122.389594,9.46285714 C122.999436,9.4529082 123.60077,9.60610169 124.130756,9.90642857 C124.186503,9.93860183 124.249783,9.9556005 124.31423,9.95571429 C124.469872,9.95614485 124.608855,9.85883977 124.660994,9.71293651 L125.82605,6.52031746 C125.887616,6.35588347 125.822892,6.17113261 125.671933,6.08039683 C125.179549,5.79892528 124.646836,5.59394179 124.092227,5.47253968 C123.374215,5.30536767 122.638957,5.22265847 121.901555,5.22611111 C119.732899,5.22611111 118.024762,5.82666667 116.824846,7.00952381 C115.62493,8.19238095 115.015798,9.81150794 115.015798,11.8194444 L115.015798,12.4638095 L112.689356,12.4638095 C112.486697,12.4638095 112.322409,12.6272611 112.322409,12.8288889 L112.322409,16.2314286 C112.322409,16.4330563 112.486697,16.5965079 112.689356,16.5965079 L115.015798,16.5965079 L115.015798,28.2206349 C115.015798,28.9161111 115.00479,29.4144444 114.817647,29.697381 C114.630504,29.9803175 114.327773,30.0916667 113.854412,30.0916667 C113.464782,30.0855223 113.078031,30.0240554 112.705868,29.909127 C112.671785,29.899805 112.636635,29.8948968 112.601289,29.8945238 C112.496909,29.8939496 112.397224,29.937629 112.327185,30.0146289 C112.257145,30.0916288 112.22338,30.1946612 112.234342,30.2979365 L112.515056,33.2185714 C112.525504,33.3328908 112.589386,33.4356641 112.687521,33.4960317 C113.105771,33.7375202 113.556878,33.9176592 114.026877,34.030873 C114.596035,34.1825374 115.182494,34.2604567 115.771709,34.2626984 C117.395448,34.2626984 118.591695,33.8410317 119.331092,33.0068254 C120.041134,32.2073016 120.411751,30.9988889 120.431933,29.3961905 C120.431933,29.3870635 120.351204,16.6038095 120.351204,16.6038095 L124.330742,16.6038095 C124.533401,16.6038095 124.697689,16.4403579 124.697689,16.2387302 L124.697689,12.8325397 C124.697689,12.6309119 124.533401,12.4674603 124.330742,12.4674603 L120.347535,12.4674603 L120.347535,11.8559524 C120.347535,10.244127 120.927311,9.46285714 122.389594,9.46285714 Z" id="Shape" fill="#FFFFFF" fill-rule="nonzero"></path>
                    </g>
                </g>
            </g>
        </g>
    </g>
</svg>