<svg
  width="2398"
  height="2398"
  viewBox="0 0 2398 2398"
  fill="none"
  xmlns="http://www.w3.org/2000/svg"
  >
  <path
    d="M1199 2397.73C1861.03 2397.73 2397.73 1861.05 2397.73 1199C2397.73 536.945 1861.03 0.269531 1199 0.269531C536.968 0.269531 0.269531 536.968 0.269531 1199C0.269531 1861.03 536.945 2397.73 1199 2397.73Z"
    fill="#1140C0"
    />
  <path
    fill-rule="evenodd"
    clip-rule="evenodd"
    d="M1483.44 1407.27C1585.52 1407.27 1661.87 1322.33 1661.87 1194.54C1661.87 1075.38 1592.53 989.611 1489.54 989.655C1425.67 989.655 1381.26 1026.28 1360.19 1067.52V1001.29H1235.6V1543.6H1361.88V1346.55C1386.04 1383.08 1428.92 1407.27 1483.44 1407.27ZM1446.02 1097.2C1497.46 1097.2 1532.55 1139.16 1532.55 1199.23C1532.55 1259.25 1497.46 1301.32 1444.49 1301.32C1393.05 1301.32 1360.33 1260.83 1360.33 1200.76C1360.33 1139.2 1393.81 1097.2 1446.02 1097.2ZM533.521 1407.27C635.594 1407.27 711.948 1322.33 711.948 1194.54C711.948 1075.38 642.602 989.611 539.684 989.655C475.788 989.655 431.382 1026.28 410.313 1067.52V1001.29H285.726V1543.6H411.959V1346.55C436.121 1383.08 478.992 1407.27 533.521 1407.27ZM496.122 1097.2C547.537 1097.2 582.622 1139.16 582.622 1199.23C582.622 1259.25 547.537 1301.32 494.565 1301.32C443.128 1301.32 410.402 1260.83 410.402 1200.76C410.402 1139.2 443.907 1097.2 496.122 1097.2ZM1905.22 1300.52C1855.34 1300.52 1820.28 1262.32 1820.28 1200C1820.28 1136.89 1854.57 1096.35 1906.78 1096.35C1959 1096.35 1991.7 1137.67 1991.7 1198.43C1991.7 1259.18 1957.42 1300.52 1905.22 1300.52ZM2116.38 1001.29H1990.14V1061.36C1966.78 1015.39 1926.25 989.674 1873.28 989.674C1755.61 989.674 1690.84 1089.41 1690.84 1199.27C1690.84 1314.6 1756.3 1407.33 1866.94 1407.33C1930.83 1407.33 1972.15 1372.27 1992.39 1329.46C2002.54 1362.97 2029.01 1400.37 2112.4 1400.37C2124.7 1400.27 2136.97 1398.97 2149.02 1396.48V1300.52C2129.55 1300.52 2116.29 1291.15 2116.29 1259.98L2116.38 1001.29ZM870.281 1200C870.281 1262.32 905.343 1300.52 955.222 1300.52C1007.5 1300.52 1041.72 1259.18 1041.72 1198.43C1041.72 1137.67 1009 1096.35 956.78 1096.35C904.564 1096.35 870.281 1136.89 870.281 1200ZM1040.36 1001.29H1166.58L1166.49 1259.98C1166.49 1291.15 1179.75 1300.52 1199.21 1300.52V1396.48C1187.16 1398.97 1174.9 1400.27 1162.59 1400.37C1079.23 1400.37 1052.73 1362.97 1042.61 1329.46C1022.34 1372.27 981.052 1407.33 917.156 1407.33C806.496 1407.33 741.043 1314.6 741.043 1199.27C741.043 1089.41 805.806 989.674 923.475 989.674C976.469 989.674 1016.98 1015.39 1040.36 1061.36V1001.29Z"
    fill="#69F1FF"
    />
  </svg>
