<svg width="151" height="32" viewBox="0 0 151 32" fill="none" xmlns="http://www.w3.org/2000/svg">
<path d="M23.9165 8.89966V18.7923C23.9165 22.5894 22.1583 26.1113 19.2552 28.4023V11.2728C19.2552 9.81266 18.468 8.45382 17.1991 7.72534L16.0391 7.06085L15.9547 7.01285L11.6385 4.49036L11.6353 1.31618V0L12.8689 0.723151L21.2376 5.61348L22.3954 6.27691C23.3365 6.8166 23.9165 7.816 23.9165 8.89966Z" fill="#4F46E5"/>
<path d="M12.2813 14.282V31.9981L5.90576 28.2703V8.83594L9.60145 10.9958L10.7604 11.6592C11.7003 12.1989 12.2813 13.1994 12.2813 14.282Z" fill="#C7D0DB"/>
<path d="M18.187 11.2734V29.1559L17.5375 29.5506L16.9031 29.8652L15.3127 30.5958L13.3495 31.5046V14.2833C13.3495 12.8221 12.5612 11.4633 11.2923 10.7358L10.1376 10.0746L5.90576 7.6022V2.37695L15.5081 7.9883L16.667 8.65066C17.607 9.19036 18.187 10.1908 18.187 11.2734Z" fill="#9193FF"/>
<path d="M10.7602 11.6595L9.60236 10.9961L0 5.38477V17.7989C0 22.1484 2.31033 26.1727 6.0701 28.3699L12.2812 31.9995V14.2834C12.2812 13.2008 11.7012 12.2003 10.7602 11.6606V11.6595Z" fill="#D3D5FF"/>
<path d="M38.492 24.3329C37.2222 24.3329 36.0794 24.1089 35.0636 23.6611C34.0673 23.1937 33.2762 22.5706 32.6901 21.7917C32.1041 20.9933 31.7915 20.1073 31.7524 19.1336H35.2101C35.2687 19.8152 35.591 20.3896 36.1771 20.857C36.7827 21.3048 37.5348 21.5288 38.4334 21.5288C39.371 21.5288 40.0938 21.3535 40.6017 21.003C41.1292 20.633 41.3929 20.1657 41.3929 19.601C41.3929 18.9973 41.0999 18.5494 40.5138 18.2573C39.9473 17.9652 39.039 17.6439 37.7887 17.2934C36.5776 16.9624 35.591 16.6411 34.8292 16.3295C34.0673 16.0179 33.4031 15.5409 32.8366 14.8983C32.2896 14.2556 32.0162 13.4086 32.0162 12.357C32.0162 11.5002 32.2701 10.7213 32.778 10.0203C33.2859 9.2998 34.0087 8.73508 34.9464 8.32615C35.9036 7.91722 36.9976 7.71276 38.2283 7.71276C40.0645 7.71276 41.5394 8.18011 42.6529 9.1148C43.7859 10.03 44.3915 11.286 44.4697 12.8828H41.1292C41.0706 12.1623 40.7776 11.5879 40.2501 11.1595C39.7227 10.7311 39.0097 10.5169 38.111 10.5169C37.232 10.5169 36.558 10.6824 36.0892 11.0134C35.6204 11.3445 35.3859 11.7826 35.3859 12.3278C35.3859 12.7562 35.5422 13.1165 35.8548 13.4086C36.1673 13.7007 36.5483 13.9343 36.9976 14.1096C37.4469 14.2654 38.111 14.4698 38.9901 14.723C40.1622 15.0346 41.1194 15.3559 41.8617 15.6869C42.6236 15.9985 43.278 16.4658 43.825 17.089C44.372 17.7121 44.6552 18.5397 44.6748 19.5717C44.6748 20.487 44.4208 21.3048 43.9129 22.0253C43.405 22.7458 42.6822 23.3105 41.7445 23.7195C40.8264 24.1284 39.7422 24.3329 38.492 24.3329Z" fill="#1D293D"/>
<path d="M51.0093 10.6921V19.601C51.0093 20.2046 51.1461 20.6428 51.4196 20.9154C51.7126 21.1685 52.201 21.2951 52.8847 21.2951H54.9359V24.07H52.2986C50.7945 24.07 49.6419 23.7195 48.841 23.0184C48.04 22.3174 47.6396 21.1783 47.6396 19.601V10.6921H45.7349V7.97564H47.6396V3.97396H51.0093V7.97564H54.9359V10.6921H51.0093Z" fill="#1D293D"/>
<path d="M71.6402 15.6285C71.6402 16.2321 71.6012 16.7774 71.523 17.2642H59.1868C59.2844 18.5494 59.763 19.5815 60.6226 20.3604C61.4821 21.1393 62.537 21.5288 63.7872 21.5288C65.5844 21.5288 66.8542 20.7791 67.5965 19.2797H71.2007C70.7123 20.7596 69.8235 21.9766 68.5342 22.9308C67.2644 23.8655 65.6821 24.3329 63.7872 24.3329C62.244 24.3329 60.857 23.9921 59.6263 23.3105C58.4151 22.6095 57.4579 21.6359 56.7547 20.3896C56.0709 19.1239 55.7291 17.6634 55.7291 16.0082C55.7291 14.353 56.0612 12.9023 56.7254 11.656C57.4091 10.3903 58.3565 9.41664 59.5677 8.73508C60.7984 8.05353 62.2049 7.71276 63.7872 7.71276C65.3109 7.71276 66.6686 8.0438 67.8602 8.70587C69.0519 9.36795 69.9798 10.3027 70.644 11.51C71.3082 12.6978 71.6402 14.0707 71.6402 15.6285ZM68.1533 14.5769C68.1337 13.3502 67.6942 12.3668 66.8347 11.6268C65.9751 10.8868 64.9105 10.5169 63.6407 10.5169C62.4882 10.5169 61.5016 10.8868 60.6812 11.6268C59.8607 12.3473 59.3723 13.3307 59.2161 14.5769H68.1533Z" fill="#1D293D"/>
<path d="M72.642 15.9498C72.642 14.3335 72.9741 12.9023 73.6383 11.656C74.322 10.4098 75.2402 9.44584 76.3927 8.76429C77.5648 8.06327 78.8541 7.71276 80.2606 7.71276C81.5304 7.71276 82.6341 7.9659 83.5718 8.4722C84.529 8.95902 85.2909 9.57242 85.8574 10.3124V7.97564H89.2272V24.07H85.8574V21.6748C85.2909 22.4343 84.5192 23.0671 83.5425 23.5734C82.5658 24.0797 81.4523 24.3329 80.202 24.3329C78.815 24.3329 77.5453 23.9824 76.3927 23.2813C75.2402 22.5608 74.322 21.5677 73.6383 20.302C72.9741 19.0168 72.642 17.566 72.642 15.9498ZM85.8574 16.0082C85.8574 14.8983 85.623 13.9343 85.1541 13.1165C84.7048 12.2986 84.109 11.6755 83.3667 11.2471C82.6244 10.8187 81.8234 10.6045 80.9639 10.6045C80.1044 10.6045 79.3034 10.8187 78.5611 11.2471C77.8188 11.656 77.2132 12.2694 76.7444 13.0873C76.2951 13.8857 76.0704 14.8398 76.0704 15.9498C76.0704 17.0597 76.2951 18.0334 76.7444 18.8707C77.2132 19.7081 77.8188 20.3507 78.5611 20.7985C79.323 21.2269 80.1239 21.4411 80.9639 21.4411C81.8234 21.4411 82.6244 21.2269 83.3667 20.7985C84.109 20.3701 84.7048 19.747 85.1541 18.9291C85.623 18.0918 85.8574 17.1182 85.8574 16.0082Z" fill="#1D293D"/>
<path d="M91.3291 15.9498C91.3291 14.3335 91.6612 12.9023 92.3254 11.656C93.0091 10.4098 93.9273 9.44584 95.0798 8.76429C96.2519 8.06327 97.551 7.71276 98.977 7.71276C100.032 7.71276 101.067 7.94643 102.083 8.41378C103.118 8.86166 103.939 9.46532 104.544 10.2248V2.45508H107.914V24.07H104.544V21.6456C103.998 22.4245 103.236 23.0671 102.259 23.5734C101.302 24.0797 100.198 24.3329 98.9477 24.3329C97.5412 24.3329 96.2519 23.9824 95.0798 23.2813C93.9273 22.5608 93.0091 21.5677 92.3254 20.302C91.6612 19.0168 91.3291 17.566 91.3291 15.9498ZM104.544 16.0082C104.544 14.8983 104.31 13.9343 103.841 13.1165C103.392 12.2986 102.796 11.6755 102.054 11.2471C101.311 10.8187 100.511 10.6045 99.651 10.6045C98.7915 10.6045 97.9905 10.8187 97.2482 11.2471C96.5059 11.656 95.9003 12.2694 95.4315 13.0873C94.9822 13.8857 94.7575 14.8398 94.7575 15.9498C94.7575 17.0597 94.9822 18.0334 95.4315 18.8707C95.9003 19.7081 96.5059 20.3507 97.2482 20.7985C98.0101 21.2269 98.811 21.4411 99.651 21.4411C100.511 21.4411 101.311 21.2269 102.054 20.7985C102.796 20.3701 103.392 19.747 103.841 18.9291C104.31 18.0918 104.544 17.1182 104.544 16.0082Z" fill="#1D293D"/>
<path d="M125.664 7.97564L115.759 31.6352H112.302L115.584 23.8071L109.225 7.97564H112.946L117.488 20.2436L122.206 7.97564H125.664Z" fill="#1D293D"/>
<path d="M131.974 8.00626V24.1972H128.017V8.00626H131.974Z" fill="#4F46E5"/>
<path d="M145.484 26.9649L143.402 24.1741C142.785 24.2971 142.183 24.3586 141.597 24.3586C140.07 24.3586 138.666 24.005 137.386 23.2977C136.121 22.5904 135.111 21.6063 134.355 20.3455C133.615 19.0693 133.244 17.6393 133.244 16.0556C133.244 14.4719 133.615 13.0496 134.355 11.7888C135.111 10.5279 136.121 9.54386 137.386 8.83657C138.666 8.12927 140.07 7.77562 141.597 7.77562C143.124 7.77562 144.52 8.12927 145.785 8.83657C147.065 9.54386 148.068 10.5279 148.793 11.7888C149.533 13.0496 149.903 14.4719 149.903 16.0556C149.903 17.4394 149.618 18.708 149.047 19.8612C148.492 20.999 147.713 21.9446 146.71 22.698L150.274 26.9649H145.484ZM137.293 16.0556C137.293 17.4856 137.679 18.6311 138.45 19.4921C139.237 20.3378 140.286 20.7606 141.597 20.7606C142.893 20.7606 143.926 20.3301 144.697 19.4691C145.484 18.608 145.877 17.4702 145.877 16.0556C145.877 14.6256 145.484 13.4878 144.697 12.6421C143.926 11.7811 142.893 11.3505 141.597 11.3505C140.286 11.3505 139.237 11.7734 138.45 12.6191C137.679 13.4647 137.293 14.6103 137.293 16.0556Z" fill="#4F46E5"/>
</svg>
